<svg width="128" height="25" viewBox="0 0 128 25" fill="none" xmlns="http://www.w3.org/2000/svg">
<path d="M30.6693 6.86275L43.1239 6.86275V9.66479L38.6208 9.66479V21.2401H35.1522V9.66479H30.6693V6.86275Z" fill="white"/>
<path d="M47.0764 21.5493C46.1974 21.5493 45.4063 21.414 44.7031 21.1435C43.9999 20.8601 43.3982 20.4736 42.8978 19.984C42.411 19.4945 42.0323 18.9212 41.7619 18.2642C41.5049 17.6071 41.3765 16.8921 41.3765 16.1191C41.3765 15.3462 41.5117 14.6312 41.7822 13.9741C42.0526 13.3042 42.4313 12.7245 42.9181 12.2349C43.4049 11.7454 43.9864 11.3653 44.6625 11.0948C45.3387 10.8114 46.0892 10.6697 46.9141 10.6697C47.6849 10.6697 48.3746 10.7856 48.9831 11.0175C49.6052 11.2494 50.1529 11.5715 50.6262 11.9837C51.2347 12.5506 51.681 13.2527 51.9649 14.0901C52.2489 14.9275 52.3842 15.855 52.3706 16.8728H44.5003C44.6085 17.6458 44.8789 18.2513 45.3116 18.6893C45.7444 19.1273 46.3462 19.3463 47.117 19.3463C47.6173 19.3463 48.023 19.2626 48.334 19.0951C48.6586 18.9147 48.9088 18.6635 49.0845 18.3414H52.1678C52.0326 18.7924 51.8162 19.2175 51.5187 19.6169C51.2347 20.0034 50.8763 20.3447 50.4436 20.6411C50.0244 20.9245 49.5308 21.1435 48.9628 21.2981C48.3949 21.4656 47.7661 21.5493 47.0764 21.5493ZM46.9141 12.8147C46.1839 12.8147 45.6294 13.0208 45.2508 13.433C44.8722 13.8453 44.6287 14.4057 44.5206 15.1143H49.1251C49.071 14.3928 48.8479 13.8324 48.4557 13.433C48.0636 13.0208 47.5497 12.8147 46.9141 12.8147Z" fill="white"/>
<path d="M58.7339 21.5686C57.8684 21.5686 57.0841 21.4334 56.3809 21.1628C55.6912 20.8794 55.0962 20.4929 54.5959 20.0033C54.1091 19.5138 53.7304 18.9405 53.46 18.2835C53.1895 17.6136 53.0543 16.8921 53.0543 16.1191C53.0543 15.3462 53.1827 14.6312 53.4397 13.9741C53.7101 13.3042 54.0888 12.7245 54.5756 12.2349C55.0624 11.7454 55.6507 11.3653 56.3404 11.0948C57.03 10.8114 57.8008 10.6697 58.6528 10.6697C59.3695 10.6697 60.0186 10.7663 60.6001 10.9595C61.1816 11.1399 61.6819 11.3975 62.1011 11.7325C62.5339 12.0675 62.8855 12.4733 63.1559 12.9499C63.4264 13.4137 63.6089 13.9226 63.7036 14.4766L60.6204 14.4766C60.5122 13.9999 60.2958 13.6263 59.9713 13.3557C59.6467 13.0723 59.2207 12.9306 58.6933 12.9306C57.882 12.9306 57.2734 13.2205 56.8677 13.8002C56.4756 14.3799 56.2795 15.1529 56.2795 16.1191C56.2795 17.0596 56.4756 17.8197 56.8677 18.3994C57.2734 18.9792 57.882 19.269 58.6933 19.269C59.2884 19.269 59.7549 19.108 60.093 18.7859C60.4446 18.4638 60.6542 18.0065 60.7218 17.4139H63.7847C63.7577 17.9936 63.6157 18.5411 63.3588 19.0565C63.1153 19.5589 62.7773 19.9969 62.3445 20.3705C61.9118 20.7441 61.3844 21.034 60.7624 21.2401C60.1538 21.4591 59.4777 21.5686 58.7339 21.5686Z" fill="white"/>
<path d="M68.0475 10.8243C68.0475 10.85 68.0475 10.9144 68.0475 11.0175C68.0475 11.1206 68.0475 11.2494 68.0475 11.404C68.0475 11.5586 68.0407 11.7261 68.0272 11.9064C68.0272 12.0868 68.0272 12.2607 68.0272 12.4282H68.0881C68.4126 11.8742 68.8453 11.4426 69.3862 11.1334C69.9272 10.8243 70.5763 10.6697 71.3335 10.6697C72.5236 10.6697 73.4431 11.0175 74.0922 11.7132C74.7549 12.396 75.0862 13.3171 75.0862 14.4766V21.2401H71.9218V15.0563C71.9218 14.4894 71.7663 14.0385 71.4553 13.7036C71.1578 13.3558 70.7115 13.1818 70.1165 13.1818C69.4944 13.1818 68.9941 13.3944 68.6154 13.8195C68.2368 14.2447 68.0475 14.7858 68.0475 15.4428V21.2401H64.8628V6.86275H68.0475V10.8243Z" fill="white"/>
<path d="M81.182 21.5686C80.3976 21.5686 79.6944 21.4849 79.0724 21.3174C78.4503 21.1499 77.9162 20.9116 77.4699 20.6024C77.0372 20.2932 76.6923 19.9261 76.4354 19.5009C76.192 19.0629 76.05 18.5862 76.0094 18.0709L79.0115 18.0709C79.1062 18.5605 79.3361 18.9341 79.7012 19.1917C80.0798 19.4494 80.5802 19.5782 81.2022 19.5782C81.7702 19.5782 82.2097 19.4751 82.5207 19.269C82.8318 19.0629 82.9873 18.773 82.9873 18.3994C82.9873 18.1675 82.9129 17.9807 82.7641 17.839C82.6154 17.6973 82.4126 17.5814 82.1556 17.4912C81.8987 17.401 81.6012 17.3301 81.2631 17.2786C80.9385 17.2142 80.5869 17.1498 80.2083 17.0854C79.7215 16.9952 79.2482 16.8921 78.7884 16.7762C78.3286 16.6602 77.9162 16.4863 77.551 16.2544C77.1859 16.0225 76.8884 15.7198 76.6585 15.3462C76.4422 14.9726 76.334 14.483 76.334 13.8775C76.334 13.3493 76.4489 12.8855 76.6788 12.4862C76.9222 12.0868 77.2468 11.7518 77.6525 11.4813C78.0582 11.2107 78.5382 11.0111 79.0927 10.8822C79.6471 10.7405 80.2421 10.6697 80.8777 10.6697C82.3787 10.6697 83.5147 10.9531 84.2855 11.5199C85.0563 12.0739 85.5161 12.8018 85.6648 13.7036L82.7033 13.7036C82.5004 12.9693 81.8919 12.6021 80.8777 12.6021C80.3909 12.6021 79.9987 12.6923 79.7012 12.8726C79.4172 13.053 79.2752 13.3107 79.2752 13.6456C79.2752 13.8389 79.3428 13.9999 79.4781 14.1287C79.6133 14.2447 79.8026 14.3413 80.046 14.4186C80.2894 14.4959 80.5734 14.5603 80.898 14.6118C81.2225 14.6634 81.5674 14.7213 81.9325 14.7858C82.4193 14.8631 82.9061 14.9661 83.393 15.0949C83.8798 15.2109 84.3193 15.3913 84.7115 15.636C85.1036 15.8808 85.4214 16.2093 85.6648 16.6216C85.9218 17.0209 86.0502 17.5427 86.0502 18.1869C86.0502 18.7408 85.9285 19.2304 85.6851 19.6555C85.4417 20.0806 85.1036 20.4349 84.6709 20.7184C84.2382 21.0018 83.7243 21.2143 83.1293 21.3561C82.5342 21.4978 81.8852 21.5686 81.182 21.5686Z" fill="white"/>
<path d="M86.302 10.9595H87.9248V7.67437H91.0486V10.9595H93.1582V12.892H91.0486V17.9936C91.0486 18.3801 91.15 18.6442 91.3529 18.7859C91.5692 18.9147 91.8667 18.9792 92.2454 18.9792C92.3536 18.9792 92.4753 18.9792 92.6105 18.9792C92.7457 18.9663 92.8674 18.9534 92.9756 18.9405H93.1379V21.2015C92.9621 21.2272 92.7187 21.2594 92.4076 21.2981C92.0966 21.3367 91.7247 21.3561 91.292 21.3561C90.7916 21.3561 90.3319 21.3174 89.9127 21.2401C89.507 21.1499 89.1554 21.0018 88.8579 20.7957C88.5604 20.5766 88.3305 20.2997 88.1682 19.9647C88.0059 19.6169 87.9248 19.1788 87.9248 18.6506V12.892H86.302V10.9595Z" fill="white"/>
<path d="M101.524 21.2401C101.443 21.1242 101.369 20.9631 101.301 20.757C101.233 20.538 101.186 20.2803 101.159 19.984H101.119C100.767 20.4607 100.341 20.8343 99.8406 21.1048C99.3538 21.3754 98.6912 21.5107 97.8527 21.5107C97.3253 21.5107 96.8317 21.4398 96.372 21.2981C95.9257 21.1693 95.5335 20.976 95.1955 20.7184C94.8709 20.4607 94.614 20.1386 94.4247 19.7521C94.2489 19.3528 94.161 18.9019 94.161 18.3994C94.161 17.8326 94.2692 17.3623 94.4855 16.9887C94.7154 16.6151 95.0197 16.3124 95.3983 16.0805C95.777 15.8486 96.2232 15.6747 96.7371 15.5587C97.251 15.4299 97.8054 15.3333 98.4004 15.2689C99.3605 15.14 100.05 14.9854 100.469 14.8051C100.902 14.6247 101.119 14.3413 101.119 13.9548C101.119 13.5812 100.99 13.2849 100.733 13.0659C100.476 12.834 100.071 12.718 99.5161 12.718C98.9075 12.718 98.4477 12.8404 98.1367 13.0852C97.8392 13.33 97.6702 13.6585 97.6296 14.0708H94.6884C94.7019 13.6327 94.8101 13.2076 95.0129 12.7953C95.2158 12.3831 95.5133 12.0224 95.9054 11.7132C96.2976 11.3911 96.7912 11.1399 97.3862 10.9595C97.9812 10.7663 98.6777 10.6697 99.4755 10.6697C100.165 10.6697 100.76 10.7212 101.261 10.8243C101.761 10.9144 102.2 11.069 102.579 11.288C103.147 11.5972 103.559 12.0159 103.816 12.5441C104.087 13.0594 104.222 13.6649 104.222 14.3606V19.6362C104.222 20.422 104.357 20.8987 104.628 21.0662V21.2401H101.524ZM98.8467 19.5202C99.5634 19.5202 100.131 19.3334 100.551 18.9598C100.983 18.5862 101.2 18.116 101.2 17.5491V16.2158C100.97 16.3575 100.686 16.4734 100.348 16.5636C100.023 16.6409 99.6851 16.7182 99.3335 16.7955C98.6303 16.9372 98.1097 17.1111 97.7716 17.3173C97.4335 17.5234 97.2645 17.8519 97.2645 18.3028C97.2645 18.7537 97.42 19.0693 97.731 19.2497C98.0421 19.4301 98.4139 19.5202 98.8467 19.5202Z" fill="white"/>
<path d="M111.141 21.5686C110.275 21.5686 109.491 21.4334 108.788 21.1628C108.098 20.8794 107.503 20.4929 107.003 20.0033C106.516 19.5138 106.137 18.9405 105.867 18.2835C105.596 17.6136 105.461 16.8921 105.461 16.1191C105.461 15.3462 105.589 14.6312 105.846 13.9741C106.117 13.3042 106.495 12.7245 106.982 12.2349C107.469 11.7454 108.057 11.3653 108.747 11.0948C109.437 10.8114 110.208 10.6697 111.059 10.6697C111.776 10.6697 112.425 10.7663 113.007 10.9595C113.588 11.1399 114.089 11.3975 114.508 11.7325C114.941 12.0675 115.292 12.4733 115.563 12.9499C115.833 13.4137 116.016 13.9226 116.11 14.4766L113.027 14.4766C112.919 13.9999 112.703 13.6263 112.378 13.3557C112.053 13.0723 111.627 12.9306 111.1 12.9306C110.289 12.9306 109.68 13.2205 109.274 13.8002C108.882 14.3799 108.686 15.1529 108.686 16.1191C108.686 17.0596 108.882 17.8197 109.274 18.3994C109.68 18.9792 110.289 19.269 111.1 19.269C111.695 19.269 112.162 19.108 112.5 18.7859C112.851 18.4638 113.061 18.0065 113.128 17.4139H116.191C116.164 17.9936 116.022 18.5411 115.765 19.0565C115.522 19.5589 115.184 19.9969 114.751 20.3705C114.319 20.7441 113.791 21.034 113.169 21.2401C112.561 21.4591 111.884 21.5686 111.141 21.5686Z" fill="white"/>
<path d="M121.489 16.7568L120.414 17.8197V21.2401H117.27V6.86275L120.414 6.86275V11.346C120.414 12.1061 120.4 12.7631 120.373 13.3171C120.36 13.8711 120.339 14.3155 120.312 14.6505L123.862 10.9595L127.554 10.9595L123.7 14.7664L128 21.2401H124.308L121.489 16.7568Z" fill="white"/>
<path d="M0 9.15493L25.6 9.15493L25.6 13.2629L0 13.2629L0 9.15493Z" fill="white"/>
<path d="M0 0L25.6 3.4375V7.54548L0 4.10798L0 0Z" fill="white"/>
<path d="M0 15.0235L25.6 15.0235V19.1315L0 19.1315L0 15.0235Z" fill="white"/>
<path d="M0 20.892L25.6 20.892V25L0 25L0 20.892Z" fill="white"/>
</svg>
